<svg width="213" height="40" viewBox="0 0 213 40" fill="none" xmlns="http://www.w3.org/2000/svg">
<path d="M40 40H0V0H40V40ZM19.8057 14.4414L7.57324 7.37891V32.6211H12.0391V15.5342L16.5049 18.1123V24.2715H22.7188V18.1123L27.1846 15.5342V32.6211H32.0391V7.37891L19.8057 14.4414ZM16.5049 28.7373V32.6211H22.7188V28.7373H16.5049Z" fill="#F16800"/>
<path d="M52.1136 11.0455H54.6364L60.5682 25.5341H60.7727L66.7045 11.0455H69.2273V28.5H67.25V15.2386H67.0795L61.625 28.5H59.7159L54.2614 15.2386H54.0909V28.5H52.1136V11.0455ZM75.5788 11.0455V28.5H73.4652V11.0455H75.5788ZM79.8168 28.5V11.0455H81.9304V19.7045H82.1349L89.9759 11.0455H92.7372L85.4077 18.9205L92.7372 28.5H90.1804L84.1122 20.3864L81.9304 22.8409V28.5H79.8168ZM95.473 28.5V11.0455H106.007V12.9205H97.5866V18.8182H105.462V20.6932H97.5866V26.625H106.143V28.5H95.473ZM116.567 28.5V11.0455H118.68V18.8182H127.987V11.0455H130.101V28.5H127.987V20.6932H118.68V28.5H116.567ZM135.048 28.5H132.832L139.241 11.0455H141.423L147.832 28.5H145.616L140.401 13.8068H140.264L135.048 28.5ZM135.866 21.6818H144.798V23.5568H135.866V21.6818ZM147.27 11.0455H149.69L154.531 19.1932H154.736L159.577 11.0455H161.997L155.69 21.3068V28.5H153.577V21.3068L147.27 11.0455ZM170.117 28.5H164.731V11.0455H170.356C172.049 11.0455 173.498 11.3949 174.702 12.0938C175.907 12.7869 176.83 13.7841 177.472 15.0852C178.114 16.3807 178.435 17.9318 178.435 19.7386C178.435 21.5568 178.112 23.1222 177.464 24.4347C176.816 25.7415 175.873 26.7472 174.634 27.4517C173.396 28.1506 171.89 28.5 170.117 28.5ZM166.844 26.625H169.981C171.424 26.625 172.62 26.3466 173.569 25.7898C174.518 25.233 175.225 24.4403 175.691 23.4119C176.157 22.3835 176.39 21.1591 176.39 19.7386C176.39 18.3295 176.16 17.1165 175.7 16.0994C175.239 15.0767 174.552 14.2926 173.637 13.7472C172.722 13.196 171.583 12.9205 170.219 12.9205H166.844V26.625ZM181.981 28.5V11.0455H192.515V12.9205H184.094V18.8182H191.969V20.6932H184.094V26.625H192.651V28.5H181.981ZM210.165 11.0455V28.5H208.12L198.609 14.7955H198.438V28.5H196.325V11.0455H198.37L207.915 24.7841H208.086V11.0455H210.165Z" fill="#F16800"/>
</svg>
